# xmcd
#
# Track frame offsets:
#	182
#	14977
#	27710
#	49312
#	63165
#	74097
#	90635
#	104780
#	127537
#	141125
#	155417
#	167525
#	182982
#	198152
#	214382
#	232687
#	242392
#	256785
#	278207
#	293525
#
# Disc length: 4065 seconds
#
# Revision: 7
# Processed by: cddbd v1.5.2PL0 Copyright (c) Steve Scherf et al.
# Submitted via: EasyCDDAExtractor 15.3.0.1
#
DISCID=230fdf14
DTITLE=Rocio Durcal - Serie Platino - 20 Exitos
DYEAR=1995
DGENRE=Latin
TTITLE0=Fue Tan Poco Tu Cariño
TTITLE1=Me Nace Del Corazon
TTITLE2=Frente A Frente
TTITLE3=Nadie Es Como Tu
TTITLE4=Orale
TTITLE5=Tu Que Fuiste
TTITLE6=Cuando Yo Quiera Has De Volver
TTITLE7=El Amor Mas Bonito
TTITLE8=Cuando Dos Almas
TTITLE9=El Farsante
TTITLE10=Desaires
TTITLE11=Hazlo Por Mi Corazon
TTITLE12=Tenias Que Ser Tan Cruel
TTITLE13=Caray
TTITLE14=La Guirnalda
TTITLE15=Ases Y Tercia De Reyes
TTITLE16=Mi Credo
TTITLE17=Si Te Pudiera Mentir
TTITLE18=Diferentes
TTITLE19=Ruega Por Nosotros
EXTD=
EXTT0=
EXTT1=
EXTT2=
EXTT3=
EXTT4=
EXTT5=
EXTT6=
EXTT7=
EXTT8=
EXTT9=
EXTT10=
EXTT11=
EXTT12=
EXTT13=
EXTT14=
EXTT15=
EXTT16=
EXTT17=
EXTT18=
EXTT19=
PLAYORDER=
